<?xml version="1.0" encoding="UTF-8" standalone="no"?>
<!-- Created with Inkscape (http://www.inkscape.org/) -->

<svg
   xmlns:dc="http://purl.org/dc/elements/1.1/"
   xmlns:cc="http://creativecommons.org/ns#"
   xmlns:rdf="http://www.w3.org/1999/02/22-rdf-syntax-ns#"
   xmlns:svg="http://www.w3.org/2000/svg"
   xmlns="http://www.w3.org/2000/svg"
   xmlns:sodipodi="http://sodipodi.sourceforge.net/DTD/sodipodi-0.dtd"
   xmlns:inkscape="http://www.inkscape.org/namespaces/inkscape"
   width="128"
   height="128"
   id="svg2"
   version="1.1"
   inkscape:version="0.48.2 r9819"
   sodipodi:docname="my_trips.svg"
   inkscape:export-filename="C:\Users\Maxence\Desktop\my_trips.png"
   inkscape:export-xdpi="90"
   inkscape:export-ydpi="90">
  <sodipodi:namedview
     id="base"
     pagecolor="#ffffff"
     bordercolor="#666666"
     borderopacity="1.0"
     inkscape:pageopacity="0.0"
     inkscape:pageshadow="2"
     inkscape:zoom="2.8"
     inkscape:cx="59.801814"
     inkscape:cy="58.151516"
     inkscape:document-units="px"
     inkscape:current-layer="layer1"
     showgrid="false"
     inkscape:window-width="1920"
     inkscape:window-height="1017"
     inkscape:window-x="-8"
     inkscape:window-y="-8"
     inkscape:window-maximized="1" />
  <defs
     id="defs4">
    <filter
       id="filter3811"
       inkscape:label="Darken edges"
       inkscape:menu="Shadows and Glows"
       inkscape:menu-tooltip="Darken the edges with an inner blur"
       color-interpolation-filters="sRGB">
      <feGaussianBlur
         id="feGaussianBlur3813"
         result="result6"
         stdDeviation="1.5" />
      <feComposite
         id="feComposite3815"
         in2="result6"
         operator="atop"
         in="SourceGraphic"
         result="result8" />
      <feComposite
         id="feComposite3817"
         in2="SourceAlpha"
         in="result8"
         operator="atop"
         result="result9" />
    </filter>
  </defs>
  <metadata
     id="metadata7">
    <rdf:RDF>
      <cc:Work
         rdf:about="">
        <dc:format>image/svg+xml</dc:format>
        <dc:type
           rdf:resource="http://purl.org/dc/dcmitype/StillImage" />
        <dc:title></dc:title>
      </cc:Work>
    </rdf:RDF>
  </metadata>
  <g
     transform="translate(0,-924.36218)"
     id="layer1"
     inkscape:groupmode="layer"
     inkscape:label="Layer 1">
    <path
       transform="translate(0,924.36218)"
       id="rect2984"
       d="M30.0 0.0C30.0 0.0 -6.68746104245e-15 128.0 -6.68746104245e-15 128.0C-6.68746104245e-15 128.0 56.6153846154 128.0 56.6153846154 128.0C56.6153846154 128.0 57.5878200012 92.041500399 57.5878200012 92.041500399C57.5878200012 92.041500399 70.4121799988 92.041500399 70.4121799988 92.041500399C70.4121799988 92.041500399 71.3846153846 128.0 71.3846153846 128.0C71.3846153846 128.0 128.0 128.0 128.0 128.0C128.0 128.0 98.0 0.0 98.0 0.0C98.0 0.0 67.9230769231 0.0 67.9230769231 0.0C67.9230769231 0.0 68.2668409657 12.7116303771 68.2668409657 12.7116303771C68.2668409657 12.7116303771 59.7331590343 12.7116303771 59.7331590343 12.7116303771C59.7331590343 12.7116303771 60.0769230769 0.0 60.0769230769 0.0C60.0769230769 0.0 30.0 0.0 30.0 0.0C30.0 0.0 30.0 0.0 30.0 0.0M59.5927254315 17.9045529347C59.5927254315 17.9045529347 68.4072745685 17.9045529347 68.4072745685 17.9045529347C68.4072745685 17.9045529347 69.0278232406 40.8510638298 69.0278232406 40.8510638298C69.0278232406 40.8510638298 58.9721767594 40.8510638298 58.9721767594 40.8510638298C58.9721767594 40.8510638298 59.5927254315 17.9045529347 59.5927254315 17.9045529347C59.5927254315 17.9045529347 59.5927254315 17.9045529347 59.5927254315 17.9045529347M58.7760328098 48.1040312094C58.7760328098 48.1040312094 69.2239671902 48.1040312094 69.2239671902 48.1040312094C69.2239671902 48.1040312094 70.1191633956 81.2063975628 70.1191633956 81.2063975628C70.1191633956 81.2063975628 57.8808366044 81.2063975628 57.8808366044 81.2063975628C57.8808366044 81.2063975628 58.7760328098 48.1040312094 58.7760328098 48.1040312094C58.7760328098 48.1040312094 58.7760328098 48.1040312094 58.7760328098 48.1040312094"
       style="fill:#505050;fill-opacity:1;fill-rule:evenodd;stroke:none;filter:url(#filter3811)" />
  </g>
</svg>
