<?xml version="1.0" encoding="UTF-8" standalone="no"?>
<!-- Created with Inkscape (http://www.inkscape.org/) -->

<svg
   xmlns:dc="http://purl.org/dc/elements/1.1/"
   xmlns:cc="http://creativecommons.org/ns#"
   xmlns:rdf="http://www.w3.org/1999/02/22-rdf-syntax-ns#"
   xmlns:svg="http://www.w3.org/2000/svg"
   xmlns="http://www.w3.org/2000/svg"
   xmlns:sodipodi="http://sodipodi.sourceforge.net/DTD/sodipodi-0.dtd"
   xmlns:inkscape="http://www.inkscape.org/namespaces/inkscape"
   width="48"
   height="48"
   id="svg2"
   version="1.1"
   inkscape:version="0.48.2 r9819"
   sodipodi:docname="seats.svg"
   inkscape:export-filename="C:\Users\Maxence\Desktop\seats.png"
   inkscape:export-xdpi="90"
   inkscape:export-ydpi="90">
  <defs
     id="defs4">
    <filter
       id="filter3799"
       inkscape:label="Darken edges"
       inkscape:menu="Shadows and Glows"
       inkscape:menu-tooltip="Darken the edges with an inner blur"
       color-interpolation-filters="sRGB">
      <feGaussianBlur
         id="feGaussianBlur3801"
         result="result6"
         stdDeviation="1.5" />
      <feComposite
         id="feComposite3803"
         in2="result6"
         operator="atop"
         in="SourceGraphic"
         result="result8" />
      <feComposite
         id="feComposite3805"
         in2="SourceAlpha"
         in="result8"
         operator="atop"
         result="result9" />
    </filter>
    <filter
       id="filter3857"
       inkscape:label="Darken edges"
       inkscape:menu="Shadows and Glows"
       inkscape:menu-tooltip="Darken the edges with an inner blur"
       color-interpolation-filters="sRGB">
      <feGaussianBlur
         id="feGaussianBlur3859"
         result="result6"
         stdDeviation="1.5" />
      <feComposite
         id="feComposite3861"
         in2="result6"
         operator="atop"
         in="SourceGraphic"
         result="result8" />
      <feComposite
         id="feComposite3863"
         in2="SourceAlpha"
         in="result8"
         operator="atop"
         result="result9" />
    </filter>
    <filter
       id="filter2992"
       inkscape:label="Darken edges"
       inkscape:menu="Shadows and Glows"
       inkscape:menu-tooltip="Darken the edges with an inner blur"
       color-interpolation-filters="sRGB">
      <feGaussianBlur
         id="feGaussianBlur2994"
         result="result6"
         stdDeviation="1.5" />
      <feComposite
         id="feComposite2996"
         in2="result6"
         operator="atop"
         in="SourceGraphic"
         result="result8" />
      <feComposite
         id="feComposite2998"
         in2="SourceAlpha"
         in="result8"
         operator="atop"
         result="result9" />
    </filter>
  </defs>
  <sodipodi:namedview
     id="base"
     pagecolor="#ffffff"
     bordercolor="#666666"
     borderopacity="1.0"
     inkscape:pageopacity="0.0"
     inkscape:pageshadow="2"
     inkscape:zoom="7.9195959"
     inkscape:cx="32.629348"
     inkscape:cy="25.087619"
     inkscape:document-units="px"
     inkscape:current-layer="g3852"
     showgrid="false"
     inkscape:window-width="1920"
     inkscape:window-height="1017"
     inkscape:window-x="-8"
     inkscape:window-y="-8"
     inkscape:window-maximized="1" />
  <metadata
     id="metadata7">
    <rdf:RDF>
      <cc:Work
         rdf:about="">
        <dc:format>image/svg+xml</dc:format>
        <dc:type
           rdf:resource="http://purl.org/dc/dcmitype/StillImage" />
        <dc:title></dc:title>
      </cc:Work>
    </rdf:RDF>
  </metadata>
  <g
     inkscape:label="Layer 1"
     inkscape:groupmode="layer"
     id="layer1"
     transform="translate(0,-1004.3622)">
    <g
       id="g3852">
      <path
         style="fill:#505050;fill-opacity:1;filter:url(#filter2992)"
         d="m 31.919517,1008.3622 c -0.72605,-10e-5 -1.442074,0.044 -1.93159,0.1689 -1.411971,0.3603 -2.359372,0.9237 -3.47686,2.0514 -0.409074,0.4128 -0.76758,0.8348 -1.062375,1.2549 6.868126,5.1332 5.360791,16.0048 0.217304,21.7928 1.97156,2.3287 6.446903,2.5175 9.078471,4.4888 0.390062,0.1919 0.743568,0.4168 1.086519,0.6516 l 12.169014,0 -0.04829,-1.5204 c -0.04487,-1.3247 -0.09074,-1.6032 -0.386318,-2.172 -0.4992,-0.9608 -1.404761,-1.9031 -2.607646,-2.703 -1.222239,-0.8129 -2.163878,-1.2317 -4.080483,-1.9065 -2.019114,-0.711 -3.867957,-1.652 -4.346076,-2.1962 -0.690126,-0.7857 -0.574828,-1.2582 0.772636,-3.0891 2.503382,-3.4017 3.313878,-7.8548 2.100603,-11.4394 -0.88119,-2.6034 -3.014243,-4.6261 -5.50503,-5.2129 -0.532431,-0.1244 -1.25383,-0.1688 -1.979879,-0.1689 z m -12.917505,3.0408 c -0.85835,-10e-5 -1.690903,0.07 -2.269618,0.2172 -1.669259,0.426 -2.807655,1.0803 -4.128772,2.4134 -2.017212,2.0357 -2.782543,3.965 -2.9215293,7.3366 -0.1583595,3.8415 0.7514323,6.704 3.1871223,10.088 1.194096,1.6583 1.411127,2.2054 1.183099,2.896 -0.315251,0.9548 -1.553864,1.6736 -5.1670025,3.0167 -2.4735158,0.9194 -4.1820339,1.7291 -5.3360157,2.5098 -1.1771957,0.7965 -2.4373763,2.1537 -2.94567407,3.1857 -0.42546969,0.8638 -0.47016435,1.1502 -0.53118712,2.6306 L 0,1047.3622 l 19.026157,0 19.026157,0 -0.07244,-1.81 c -0.05305,-1.5662 -0.10931,-1.8858 -0.458752,-2.5582 -0.590163,-1.1357 -1.668471,-2.2399 -3.090543,-3.1856 -1.444956,-0.961 -2.538982,-1.4948 -4.80483,-2.2927 -2.387036,-0.8405 -4.60176,-1.9388 -5.167002,-2.5823 -0.81588,-0.9288 -0.675492,-1.4797 0.917505,-3.6442 2.959546,-4.0214 3.921278,-9.2771 2.486922,-13.5149 -1.041762,-3.0777 -3.550315,-5.4603 -6.49497,-6.1541 -0.629451,-0.1471 -1.507848,-0.217 -2.366197,-0.2172 z"
         id="path2998"
         inkscape:connector-curvature="0" />
    </g>
  </g>
</svg>
