<?xml version="1.0" encoding="UTF-8" standalone="no"?>
<!-- Created with Inkscape (http://www.inkscape.org/) -->

<svg
   xmlns:dc="http://purl.org/dc/elements/1.1/"
   xmlns:cc="http://creativecommons.org/ns#"
   xmlns:rdf="http://www.w3.org/1999/02/22-rdf-syntax-ns#"
   xmlns:svg="http://www.w3.org/2000/svg"
   xmlns="http://www.w3.org/2000/svg"
   xmlns:sodipodi="http://sodipodi.sourceforge.net/DTD/sodipodi-0.dtd"
   xmlns:inkscape="http://www.inkscape.org/namespaces/inkscape"
   width="140"
   height="62"
   id="svg2"
   version="1.1"
   inkscape:version="0.47 r22583"
   sodipodi:docname="aaaaaaaaaaaaaaaaaaaaaaaaaaaa.svg">
  <defs
     id="defs4">
    <inkscape:perspective
       sodipodi:type="inkscape:persp3d"
       inkscape:vp_x="0 : 526.18109 : 1"
       inkscape:vp_y="0 : 1000 : 0"
       inkscape:vp_z="744.09448 : 526.18109 : 1"
       inkscape:persp3d-origin="372.04724 : 350.78739 : 1"
       id="perspective10" />
    <inkscape:perspective
       sodipodi:type="inkscape:persp3d"
       inkscape:vp_x="0 : 0.5 : 1"
       inkscape:vp_y="0 : 1000 : 0"
       inkscape:vp_z="1 : 0.5 : 1"
       inkscape:persp3d-origin="0.5 : 0.33333333 : 1"
       id="perspective10749" />
    <inkscape:perspective
       sodipodi:type="inkscape:persp3d"
       inkscape:vp_x="0 : 526.18109 : 1"
       inkscape:vp_y="0 : 1000 : 0"
       inkscape:vp_z="744.09448 : 526.18109 : 1"
       inkscape:persp3d-origin="372.04724 : 350.78739 : 1"
       id="perspective10-7" />
    <inkscape:perspective
       id="perspective2824"
       inkscape:persp3d-origin="0.5 : 0.33333333 : 1"
       inkscape:vp_z="1 : 0.5 : 1"
       inkscape:vp_y="0 : 1000 : 0"
       inkscape:vp_x="0 : 0.5 : 1"
       sodipodi:type="inkscape:persp3d" />
    <inkscape:perspective
       id="perspective2889"
       inkscape:persp3d-origin="237.96852 : 44.161418 : 1"
       inkscape:vp_z="475.93704 : 66.242126 : 1"
       inkscape:vp_y="0 : 1000 : 0"
       inkscape:vp_x="0 : 66.242126 : 1"
       sodipodi:type="inkscape:persp3d" />
    <clipPath
       id="clipPath18"
       clipPathUnits="userSpaceOnUse">
      <path
         id="path20"
         d="m 0,1190.551 841.89,0 L 841.89,0 0,0 0,1190.551 z" />
    </clipPath>
    <inkscape:perspective
       id="perspective10-74"
       inkscape:persp3d-origin="0.5 : 0.33333333 : 1"
       inkscape:vp_z="1 : 0.5 : 1"
       inkscape:vp_y="0 : 1000 : 0"
       inkscape:vp_x="0 : 0.5 : 1"
       sodipodi:type="inkscape:persp3d" />
  </defs>
  <sodipodi:namedview
     id="base"
     pagecolor="#ffffff"
     bordercolor="#666666"
     borderopacity="1.0"
     inkscape:pageopacity="0.0"
     inkscape:pageshadow="2"
     inkscape:zoom="1.4984375"
     inkscape:cx="105.7571"
     inkscape:cy="96.912342"
     inkscape:document-units="px"
     inkscape:current-layer="layer1"
     showgrid="false"
     inkscape:window-width="1280"
     inkscape:window-height="751"
     inkscape:window-x="-4"
     inkscape:window-y="-4"
     inkscape:window-maximized="1" />
  <metadata
     id="metadata7">
    <rdf:RDF>
      <cc:Work
         rdf:about="">
        <dc:format>image/svg+xml</dc:format>
        <dc:type
           rdf:resource="http://purl.org/dc/dcmitype/StillImage" />
        <dc:title></dc:title>
      </cc:Work>
    </rdf:RDF>
  </metadata>
  <g
     inkscape:label="Calque 1"
     inkscape:groupmode="layer"
     id="layer1"
     transform="translate(0,-990.36218)">
    <g
       id="g5293"
       transform="matrix(1.1630725,0,0,-1.1630725,9.0304448,1115.9894)">
      <g
         transform="matrix(0.759738,0,0,0.759738,48.5605,77.0804)"
         id="g738">
        <path
           id="path740"
           style="fill:#585e6a;fill-opacity:1;fill-rule:nonzero;stroke:#706d6e;stroke-width:1;stroke-linecap:butt;stroke-linejoin:miter;stroke-miterlimit:4;stroke-opacity:1;stroke-dasharray:none"
           d="M 0,0 59.217,0" />
      </g>
      <g
         transform="matrix(0.759738,0,0,0.759738,57.0641,78.7802)"
         id="g742">
        <path
           id="path744"
           style="fill:#585e6a;fill-opacity:1;fill-rule:nonzero;stroke:none"
           d="m 0,0 -2.057,0 0,2.052 c -1.745,-1.532 -3.459,-2.286 -5.422,-2.286 -2.68,0 -4.238,1.351 -4.238,3.766 l 0,10.051 2.244,0 0,-9.35 c 0,-1.948 0.685,-2.831 2.618,-2.831 1.619,0 3.115,0.676 4.611,2.052 l 0,10.129 2.244,0 L 0,0 z" />
      </g>
      <g
         transform="matrix(0.759738,0,0,0.759738,64.7999,78.8188)"
         id="g746">
        <path
           id="path748"
           style="fill:#585e6a;fill-opacity:1;fill-rule:nonzero;stroke:none"
           d="m 0,0 c -0.718,-0.207 -1.497,-0.285 -2.4,-0.285 -2.462,0 -3.709,0.883 -3.709,2.649 l 0,9.558 -2.431,0 0,1.61 2.431,0 0,4.389 2.369,0 0,-4.389 3.708,0 0,-1.61 -3.708,0 0,-8.7 c 0,-1.377 0.249,-1.845 2.15,-1.845 0.623,0 1.09,0.104 1.59,0.208 L 0,0 z" />
      </g>
      <g
         transform="matrix(0.759738,0,0,0.759738,71.0132,79.7862)"
         id="g750">
        <path
           id="path752"
           style="fill:#585e6a;fill-opacity:1;fill-rule:nonzero;stroke:none"
           d="m 0,0 c 2.586,0 4.207,1.87 4.207,5.297 0,3.741 -1.465,5.585 -4.457,5.585 -1.62,0 -2.992,-0.676 -3.989,-2.026 l 0,-6.778 C -3.085,0.675 -1.746,0 0,0 m -6.482,2.986 0,14.466 2.243,0 0,-6.804 c 0.997,1.221 2.338,1.845 4.145,1.845 4.176,0 6.638,-2.52 6.638,-7.091 0,-4.519 -2.399,-6.961 -6.669,-6.961 -1.901,0 -3.272,0.598 -4.3,1.871 l -0.53,-1.636 -1.746,0 c 0.157,1.48 0.219,2.934 0.219,4.31" />
      </g>
      <g
         transform="matrix(0.759738,0,0,0.759738,77.6931,89.0997)"
         id="g754">
        <path
           id="path756"
           style="fill:#585e6a;fill-opacity:1;fill-rule:nonzero;stroke:none"
           d="m 0,0 2.088,0 0,-2.053 c 1.745,1.559 3.303,2.287 5.329,2.287 2.181,0 3.396,-0.935 3.926,-2.287 1.745,1.559 3.365,2.287 5.391,2.287 2.649,0 4.176,-1.351 4.176,-3.767 l 0,-10.05 -2.244,0 0,9.452 c 0,1.87 -0.685,2.728 -2.555,2.728 -1.652,0 -3.116,-0.675 -4.581,-2.052 l 0,-10.128 -2.15,0 0,9.401 c 0,1.896 -0.716,2.779 -2.587,2.779 -1.683,0 -3.054,-0.675 -4.549,-2.052 l 0,-10.128 -2.244,0 L 0,0 z" />
      </g>
      <g
         transform="matrix(0.759738,0,0,0.759738,50.4509,73.1356)"
         id="g758">
        <path
           id="path760"
           style="fill:#585e6a;fill-opacity:1;fill-rule:nonzero;stroke:none"
           d="m 0,0 -0.528,0 0,0.291 -0.009,0 c -0.17,-0.208 -0.41,-0.341 -0.702,-0.341 -0.506,0 -0.727,0.358 -0.727,0.84 l 0,1.351 0.557,0 0,-1.144 c 0,-0.262 0.005,-0.614 0.362,-0.614 0.402,0 0.49,0.435 0.49,0.71 l 0,1.048 L 0,2.141 0,0 z" />
      </g>
      <g
         transform="matrix(0.759738,0,0,0.759738,51.1135,74.7619)"
         id="g762">
        <path
           id="path764"
           style="fill:#585e6a;fill-opacity:1;fill-rule:nonzero;stroke:none"
           d="m 0,0 0.528,0 0,-0.291 0.008,0 c 0.175,0.244 0.412,0.34 0.702,0.34 0.507,0 0.728,-0.358 0.728,-0.839 l 0,-1.351 -0.557,0 0,1.143 c 0,0.262 -0.004,0.615 -0.362,0.615 -0.402,0 -0.49,-0.436 -0.49,-0.711 l 0,-1.047 L 0,-2.141 0,0 z" />
      </g>
      <path
         id="path766"
         style="fill:#585e6a;fill-opacity:1;fill-rule:nonzero;stroke:none"
         d="m 53.279058,75.461503 0.423174,0 0,-0.403421 -0.423174,0 0,0.403421 z m 0,-0.699719 0.423174,0 0,-1.626598 -0.423174,0 0,1.626598 z" />
      <g
         transform="matrix(0.759738,0,0,0.759738,54.194,74.7619)"
         id="g768">
        <path
           id="path770"
           style="fill:#585e6a;fill-opacity:1;fill-rule:nonzero;stroke:none"
           d="m 0,0 0.598,0 0.532,-1.56 0.009,0 L 1.653,0 2.21,0 1.421,-2.141 0.793,-2.141 0,0 z" />
      </g>
      <g
         transform="matrix(0.759738,0,0,0.759738,57.3762,74.1075)"
         id="g772">
        <path
           id="path774"
           style="fill:#585e6a;fill-opacity:1;fill-rule:nonzero;stroke:none"
           d="M 0,0 C -0.017,0.271 -0.142,0.503 -0.453,0.503 -0.765,0.503 -0.923,0.287 -0.948,0 L 0,0 z m 0.373,-1.159 c -0.203,-0.112 -0.436,-0.17 -0.735,-0.17 -0.706,0 -1.117,0.406 -1.117,1.109 0,0.619 0.328,1.13 0.992,1.13 0.794,0 1.018,-0.544 1.018,-1.292 l -1.479,0 c 0.025,-0.345 0.266,-0.541 0.611,-0.541 0.27,0 0.503,0.101 0.71,0.217 l 0,-0.453 z" />
      </g>
      <g
         transform="matrix(0.759738,0,0,0.759738,58.3488,74.7619)"
         id="g776">
        <path
           id="path778"
           style="fill:#585e6a;fill-opacity:1;fill-rule:nonzero;stroke:none"
           d="m 0,0 0.494,0 0,-0.487 0.008,0 c 0.025,0.2 0.253,0.536 0.586,0.536 0.055,0 0.112,0 0.17,-0.017 l 0,-0.561 c -0.05,0.03 -0.149,0.046 -0.25,0.046 -0.452,0 -0.452,-0.565 -0.452,-0.872 l 0,-0.786 L 0,-2.141 0,0 z" />
      </g>
      <g
         transform="matrix(0.759738,0,0,0.759738,60.7601,74.4198)"
         id="g780">
        <path
           id="path782"
           style="fill:#585e6a;fill-opacity:1;fill-rule:nonzero;stroke:none"
           d="m 0,0 c -0.171,0.059 -0.295,0.092 -0.499,0.092 -0.15,0 -0.328,-0.054 -0.328,-0.237 0,-0.34 0.968,-0.125 0.968,-0.898 0,-0.498 -0.445,-0.697 -0.898,-0.697 -0.211,0 -0.428,0.037 -0.631,0.092 l 0.034,0.456 c 0.174,-0.087 0.356,-0.142 0.548,-0.142 0.141,0 0.366,0.055 0.366,0.263 0,0.419 -0.969,0.133 -0.969,0.905 0,0.461 0.403,0.665 0.84,0.665 0.261,0 0.432,-0.042 0.606,-0.079 L 0,0 z" />
      </g>
      <path
         id="path784"
         style="fill:#585e6a;fill-opacity:1;fill-rule:nonzero;stroke:none"
         d="m 61.432561,75.461503 0.423174,0 0,-0.403421 -0.423174,0 0,0.403421 z m 0,-0.699719 0.423174,0 0,-1.626598 -0.423174,0 0,1.626598 z" />
      <g
         transform="matrix(0.759738,0,0,0.759738,62.6658,74.4517)"
         id="g786">
        <path
           id="path788"
           style="fill:#585e6a;fill-opacity:1;fill-rule:nonzero;stroke:none"
           d="m 0,0 -0.412,0 0,0.408 0.412,0 0,0.427 0.557,0.179 0,-0.606 0.495,0 0,-0.408 -0.495,0 0,-0.997 c 0,-0.183 0.05,-0.353 0.262,-0.353 0.099,0 0.195,0.02 0.254,0.058 l 0.016,-0.44 C 0.973,-1.766 0.844,-1.782 0.678,-1.782 0.242,-1.782 0,-1.513 0,-1.088 L 0,0 z" />
      </g>
      <g
         transform="matrix(0.759738,0,0,0.759738,65.2859,73.2268)"
         id="g790">
        <path
           id="path792"
           style="fill:#585e6a;fill-opacity:1;fill-rule:nonzero;stroke:none"
           d="m 0,0 c -0.204,-0.111 -0.437,-0.17 -0.735,-0.17 -0.707,0 -1.118,0.406 -1.118,1.109 0,0.62 0.329,1.13 0.993,1.13 0.794,0 1.018,-0.544 1.018,-1.292 l -1.479,0 c 0.025,-0.344 0.265,-0.541 0.611,-0.541 0.27,0 0.502,0.101 0.71,0.217 L 0,0 z m -0.374,1.159 c -0.017,0.271 -0.141,0.503 -0.453,0.503 -0.311,0 -0.469,-0.216 -0.494,-0.503 l 0.947,0 z m -0.436,1.758 0.569,0 -0.569,-0.606 -0.345,0 0.345,0.606 z" />
      </g>
      <g
         transform="matrix(0.759738,0,0,0.759738,67.7639,73.4264)"
         id="g794">
        <path
           id="path796"
           style="fill:#585e6a;fill-opacity:1;fill-rule:nonzero;stroke:none"
           d="m 0,0 c 0.37,0 0.49,0.39 0.49,0.693 0,0.3 -0.142,0.682 -0.499,0.682 -0.361,0 -0.46,-0.395 -0.46,-0.682 C -0.469,0.398 -0.366,0 0,0 m 0.511,-0.143 -0.009,0 c -0.165,-0.207 -0.395,-0.29 -0.656,-0.29 -0.656,0 -0.897,0.54 -0.897,1.126 0,0.59 0.241,1.114 0.897,1.114 0.278,0 0.474,-0.096 0.64,-0.299 l 0.008,0 0,1.225 0.557,0 0,-3.116 -0.54,0 0,0.24 z" />
      </g>
      <g
         transform="matrix(0.759738,0,0,0.759738,70.2442,74.1075)"
         id="g798">
        <path
           id="path800"
           style="fill:#585e6a;fill-opacity:1;fill-rule:nonzero;stroke:none"
           d="M 0,0 C -0.017,0.271 -0.141,0.503 -0.453,0.503 -0.764,0.503 -0.921,0.287 -0.946,0 L 0,0 z m 0.375,-1.159 c -0.204,-0.112 -0.437,-0.17 -0.736,-0.17 -0.706,0 -1.117,0.406 -1.117,1.109 0,0.619 0.328,1.13 0.993,1.13 0.793,0 1.018,-0.544 1.018,-1.292 l -1.479,0 c 0.025,-0.345 0.266,-0.541 0.61,-0.541 0.27,0 0.503,0.101 0.711,0.217 l 0,-0.453 z" />
      </g>
      <g
         transform="matrix(0.759738,0,0,0.759738,72.4507,74.4517)"
         id="g802">
        <path
           id="path804"
           style="fill:#585e6a;fill-opacity:1;fill-rule:nonzero;stroke:none"
           d="m 0,0 -0.412,0 0,0.408 0.412,0 0,0.427 0.557,0.179 0,-0.606 0.494,0 0,-0.408 -0.494,0 0,-0.997 c 0,-0.183 0.05,-0.353 0.261,-0.353 0.1,0 0.196,0.02 0.254,0.058 l 0.017,-0.44 C 0.973,-1.766 0.844,-1.782 0.678,-1.782 0.242,-1.782 0,-1.513 0,-1.088 L 0,0 z" />
      </g>
      <g
         transform="matrix(0.759738,0,0,0.759738,74.7867,74.1075)"
         id="g806">
        <path
           id="path808"
           style="fill:#585e6a;fill-opacity:1;fill-rule:nonzero;stroke:none"
           d="M 0,0 C -0.016,0.271 -0.141,0.503 -0.452,0.503 -0.764,0.503 -0.922,0.287 -0.947,0 L 0,0 z m 0.374,-1.159 c -0.204,-0.112 -0.436,-0.17 -0.735,-0.17 -0.707,0 -1.118,0.406 -1.118,1.109 0,0.619 0.329,1.13 0.993,1.13 0.794,0 1.018,-0.544 1.018,-1.292 l -1.479,0 c 0.025,-0.345 0.266,-0.541 0.611,-0.541 0.27,0 0.502,0.101 0.71,0.217 l 0,-0.453 z" />
      </g>
      <g
         transform="matrix(0.759738,0,0,0.759738,76.8036,74.4109)"
         id="g810">
        <path
           id="path812"
           style="fill:#585e6a;fill-opacity:1;fill-rule:nonzero;stroke:none"
           d="m 0,0 c -0.099,0.046 -0.208,0.079 -0.378,0.079 -0.344,0 -0.565,-0.275 -0.565,-0.678 0,-0.393 0.188,-0.697 0.578,-0.697 0.157,0 0.333,0.058 0.428,0.099 l 0.024,-0.46 c -0.161,-0.05 -0.328,-0.072 -0.556,-0.072 -0.702,0 -1.055,0.479 -1.055,1.13 0,0.62 0.365,1.11 1.034,1.11 0.225,0 0.386,-0.026 0.541,-0.071 L 0,0 z" />
      </g>
      <g
         transform="matrix(0.759738,0,0,0.759738,77.3782,75.5031)"
         id="g814">
        <path
           id="path816"
           style="fill:#585e6a;fill-opacity:1;fill-rule:nonzero;stroke:none"
           d="m 0,0 0.557,0 0,-1.267 0.009,0 c 0.141,0.207 0.381,0.34 0.672,0.34 0.506,0 0.727,-0.357 0.727,-0.839 l 0,-1.35 -0.557,0 0,1.142 c 0,0.262 -0.004,0.616 -0.361,0.616 -0.403,0 -0.49,-0.437 -0.49,-0.711 l 0,-1.047 L 0,-3.116 0,0 z" />
      </g>
      <g
         transform="matrix(0.759738,0,0,0.759738,79.5343,74.7619)"
         id="g818">
        <path
           id="path820"
           style="fill:#585e6a;fill-opacity:1;fill-rule:nonzero;stroke:none"
           d="m 0,0 0.528,0 0,-0.291 0.008,0 c 0.174,0.244 0.411,0.34 0.702,0.34 0.507,0 0.726,-0.358 0.726,-0.839 l 0,-1.351 -0.555,0 0,1.143 c 0,0.262 -0.005,0.615 -0.362,0.615 -0.402,0 -0.491,-0.436 -0.491,-0.711 l 0,-1.047 L 0,-2.141 0,0 z" />
      </g>
      <g
         transform="matrix(0.759738,0,0,0.759738,82.4349,73.4264)"
         id="g822">
        <path
           id="path824"
           style="fill:#585e6a;fill-opacity:1;fill-rule:nonzero;stroke:none"
           d="M 0,0 C 0.428,0 0.541,0.382 0.541,0.739 0.541,1.067 0.366,1.375 0,1.375 -0.361,1.375 -0.536,1.059 -0.536,0.739 -0.536,0.387 -0.424,0 0,0 m 0,1.807 c 0.636,0 1.122,-0.428 1.122,-1.134 0,-0.615 -0.412,-1.106 -1.122,-1.106 -0.707,0 -1.118,0.491 -1.118,1.106 0,0.706 0.486,1.134 1.118,1.134" />
      </g>
      <path
         id="path826"
         style="fill:#585e6a;fill-opacity:1;fill-rule:nonzero;stroke:none"
         d="m 83.855456,75.503288 0.423173,0 0,-2.367342 -0.423173,0 0,2.367342 z" />
      <g
         transform="matrix(0.759738,0,0,0.759738,85.6953,73.4264)"
         id="g828">
        <path
           id="path830"
           style="fill:#585e6a;fill-opacity:1;fill-rule:nonzero;stroke:none"
           d="M 0,0 C 0.428,0 0.54,0.382 0.54,0.739 0.54,1.067 0.366,1.375 0,1.375 -0.362,1.375 -0.536,1.059 -0.536,0.739 -0.536,0.387 -0.424,0 0,0 m 0,1.807 c 0.635,0 1.122,-0.428 1.122,-1.134 0,-0.615 -0.412,-1.106 -1.122,-1.106 -0.706,0 -1.117,0.491 -1.117,1.106 0,0.706 0.486,1.134 1.117,1.134" />
      </g>
      <g
         transform="matrix(0.759738,0,0,0.759738,88.1756,73.9658)"
         id="g832">
        <path
           id="path834"
           style="fill:#585e6a;fill-opacity:1;fill-rule:nonzero;stroke:none"
           d="m 0,0 c 0,0.366 -0.14,0.665 -0.465,0.665 -0.377,0 -0.498,-0.35 -0.498,-0.678 0,-0.29 0.153,-0.647 0.474,-0.647 C -0.14,-0.66 0,-0.357 0,0 m 0.558,1.048 0,-1.933 c 0,-0.582 -0.233,-1.13 -1.13,-1.13 -0.22,0 -0.474,0.034 -0.741,0.146 l 0.047,0.473 c 0.17,-0.091 0.448,-0.187 0.622,-0.187 0.616,0 0.644,0.462 0.644,0.831 l -0.008,0 c -0.103,-0.184 -0.353,-0.341 -0.664,-0.341 -0.631,0 -0.873,0.507 -0.873,1.08 0,0.516 0.267,1.11 0.906,1.11 0.283,0 0.503,-0.096 0.657,-0.34 l 0.008,0 0,0.291 0.532,0 z" />
      </g>
      <path
         id="path836"
         style="fill:#585e6a;fill-opacity:1;fill-rule:nonzero;stroke:none"
         d="m 89.271625,75.461503 0.423173,0 0,-0.403421 -0.423173,0 0,0.403421 z m 0,-0.699719 0.423173,0 0,-1.626598 -0.423173,0 0,1.626598 z" />
      <g
         transform="matrix(0.759738,0,0,0.759738,91.3859,74.1075)"
         id="g838">
        <path
           id="path840"
           style="fill:#585e6a;fill-opacity:1;fill-rule:nonzero;stroke:none"
           d="M 0,0 C -0.017,0.271 -0.141,0.503 -0.453,0.503 -0.764,0.503 -0.922,0.287 -0.948,0 L 0,0 z m 0.374,-1.159 c -0.203,-0.112 -0.436,-0.17 -0.735,-0.17 -0.706,0 -1.118,0.406 -1.118,1.109 0,0.619 0.328,1.13 0.993,1.13 0.793,0 1.018,-0.544 1.018,-1.292 l -1.48,0 c 0.026,-0.345 0.267,-0.541 0.612,-0.541 0.27,0 0.503,0.101 0.71,0.217 l 0,-0.453 z" />
      </g>
      <g
         transform="matrix(0.759738,0,0,0.759738,49.4371,70.5025)"
         id="g842">
        <path
           id="path844"
           style="fill:#585e6a;fill-opacity:1;fill-rule:nonzero;stroke:none"
           d="m 0,0 0.238,0 c 0.244,0 0.548,0.054 0.548,0.353 0,0.337 -0.295,0.361 -0.561,0.361 L 0,0.714 0,0 z m 0,-1.271 0.275,0 c 0.27,0 0.598,0.066 0.598,0.402 0,0.379 -0.307,0.437 -0.598,0.437 l -0.275,0 0,-0.839 z m -0.581,2.442 1.014,0 c 0.373,0 0.935,-0.108 0.935,-0.743 0,-0.345 -0.233,-0.586 -0.578,-0.648 l 0,-0.009 c 0.395,-0.037 0.665,-0.303 0.665,-0.66 0,-0.732 -0.657,-0.84 -1.022,-0.84 l -1.014,0 0,2.9 z" />
      </g>
      <g
         transform="matrix(0.759738,0,0,0.759738,52.1333,70.1619)"
         id="g846">
        <path
           id="path848"
           style="fill:#585e6a;fill-opacity:1;fill-rule:nonzero;stroke:none"
           d="M 0,0 C -0.017,0.27 -0.141,0.502 -0.453,0.502 -0.765,0.502 -0.923,0.286 -0.947,0 L 0,0 z m 0.374,-1.16 c -0.205,-0.111 -0.436,-0.17 -0.736,-0.17 -0.705,0 -1.117,0.407 -1.117,1.108 0,0.62 0.328,1.131 0.993,1.131 0.793,0 1.017,-0.545 1.017,-1.292 l -1.478,0 c 0.024,-0.345 0.265,-0.54 0.611,-0.54 0.27,0 0.503,0.1 0.71,0.216 l 0,-0.453 z" />
      </g>
      <path
         id="path850"
         style="fill:#585e6a;fill-opacity:1;fill-rule:nonzero;stroke:none"
         d="m 53.105838,71.556452 0.423173,0 0,-2.367343 -0.423173,0 0,2.367343 z" />
      <g
         transform="matrix(0.759738,0,0,0.759738,54.3554,70.5054)"
         id="g852">
        <path
           id="path854"
           style="fill:#585e6a;fill-opacity:1;fill-rule:nonzero;stroke:none"
           d="m 0,0 -0.412,0 0,0.407 0.412,0 0,0.3 c 0,0.427 0.241,0.727 0.681,0.727 0.142,0 0.299,-0.022 0.408,-0.046 L 1.043,0.927 C 0.993,0.955 0.922,1.001 0.802,1.001 0.615,1.001 0.556,0.839 0.556,0.673 l 0,-0.266 0.487,0 0,-0.407 -0.487,0 0,-1.732 L 0,-1.732 0,0 z" />
      </g>
      <g
         transform="matrix(0.759738,0,0,0.759738,56.4005,69.4801)"
         id="g856">
        <path
           id="path858"
           style="fill:#585e6a;fill-opacity:1;fill-rule:nonzero;stroke:none"
           d="M 0,0 C 0.428,0 0.54,0.381 0.54,0.739 0.54,1.067 0.366,1.375 0,1.375 -0.361,1.375 -0.536,1.059 -0.536,0.739 -0.536,0.386 -0.423,0 0,0 m 0,1.807 c 0.635,0 1.123,-0.428 1.123,-1.135 0,-0.614 -0.412,-1.105 -1.123,-1.105 -0.706,0 -1.118,0.491 -1.118,1.105 0,0.707 0.487,1.135 1.118,1.135" />
      </g>
      <g
         transform="matrix(0.759738,0,0,0.759738,57.8213,70.8148)"
         id="g860">
        <path
           id="path862"
           style="fill:#585e6a;fill-opacity:1;fill-rule:nonzero;stroke:none"
           d="m 0,0 0.495,0 0,-0.486 0.007,0 c 0.026,0.199 0.254,0.536 0.586,0.536 0.055,0 0.112,0 0.171,-0.016 l 0,-0.562 c -0.051,0.03 -0.15,0.046 -0.25,0.046 -0.452,0 -0.452,-0.565 -0.452,-0.872 l 0,-0.786 L 0,-2.14 0,0 z" />
      </g>
      <g
         transform="matrix(0.759738,0,0,0.759738,59.4057,70.5054)"
         id="g864">
        <path
           id="path866"
           style="fill:#585e6a;fill-opacity:1;fill-rule:nonzero;stroke:none"
           d="m 0,0 -0.412,0 0,0.407 0.412,0 0,0.428 0.557,0.18 0,-0.608 0.494,0 0,-0.407 -0.494,0 0,-0.997 c 0,-0.183 0.05,-0.353 0.261,-0.353 0.1,0 0.196,0.02 0.254,0.058 l 0.016,-0.44 C 0.972,-1.766 0.844,-1.782 0.677,-1.782 0.241,-1.782 0,-1.512 0,-1.089 L 0,0 z" />
      </g>
      <path
         id="path868"
         style="fill:#585e6a;fill-opacity:1;fill-rule:nonzero;stroke:none"
         d="m 60.614324,70.211716 0.829633,0 0,-0.3472 -0.829633,0 0,0.3472 z" />
      <g
         transform="matrix(0.759738,0,0,0.759738,62.0377,71.392)"
         id="g870">
        <path
           id="path872"
           style="fill:#585e6a;fill-opacity:1;fill-rule:nonzero;stroke:none"
           d="m 0,0 0.931,0 0.69,-2.197 0.008,0 0.69,2.197 0.93,0 0,-2.899 -0.557,0 0,2.392 -0.007,0 -0.782,-2.392 -0.557,0 -0.781,2.392 -0.008,-0.007 0,-2.385 L 0,-2.899 0,0 z" />
      </g>
      <g
         transform="matrix(0.759738,0,0,0.759738,65.9521,69.4801)"
         id="g874">
        <path
           id="path876"
           style="fill:#585e6a;fill-opacity:1;fill-rule:nonzero;stroke:none"
           d="M 0,0 C 0.428,0 0.54,0.381 0.54,0.739 0.54,1.067 0.366,1.375 0,1.375 -0.362,1.375 -0.537,1.059 -0.537,0.739 -0.537,0.386 -0.423,0 0,0 m 0,1.807 c 0.635,0 1.122,-0.428 1.122,-1.135 0,-0.614 -0.412,-1.105 -1.122,-1.105 -0.706,0 -1.118,0.491 -1.118,1.105 0,0.707 0.486,1.135 1.118,1.135" />
      </g>
      <g
         transform="matrix(0.759738,0,0,0.759738,67.3633,70.8148)"
         id="g878">
        <path
           id="path880"
           style="fill:#585e6a;fill-opacity:1;fill-rule:nonzero;stroke:none"
           d="m 0,0 0.527,0 0,-0.292 0.009,0 c 0.174,0.247 0.411,0.342 0.702,0.342 0.507,0 0.727,-0.357 0.727,-0.84 l 0,-1.35 -0.557,0 0,1.143 c 0,0.262 -0.004,0.615 -0.362,0.615 -0.402,0 -0.49,-0.436 -0.49,-0.71 l 0,-1.048 L 0,-2.14 0,0 z" />
      </g>
      <g
         transform="matrix(0.759738,0,0,0.759738,69.6573,70.5054)"
         id="g882">
        <path
           id="path884"
           style="fill:#585e6a;fill-opacity:1;fill-rule:nonzero;stroke:none"
           d="m 0,0 -0.411,0 0,0.407 0.411,0 0,0.428 0.558,0.18 0,-0.608 0.494,0 0,-0.407 -0.494,0 0,-0.997 c 0,-0.183 0.049,-0.353 0.262,-0.353 0.098,0 0.194,0.02 0.253,0.058 l 0.016,-0.44 C 0.973,-1.766 0.844,-1.782 0.678,-1.782 0.241,-1.782 0,-1.512 0,-1.089 L 0,0 z" />
      </g>
      <g
         transform="matrix(0.759738,0,0,0.759738,71.7726,69.4801)"
         id="g886">
        <path
           id="path888"
           style="fill:#585e6a;fill-opacity:1;fill-rule:nonzero;stroke:none"
           d="m 0,0 c 0.365,0 0.47,0.398 0.47,0.693 0,0.286 -0.1,0.682 -0.462,0.682 -0.357,0 -0.499,-0.382 -0.499,-0.682 C -0.491,0.39 -0.37,0 0,0 m -1.05,2.733 0.555,0 0,-1.25 0.009,0 c 0.153,0.203 0.349,0.324 0.639,0.324 0.658,0 0.898,-0.524 0.898,-1.114 0,-0.586 -0.24,-1.126 -0.898,-1.126 -0.236,0 -0.494,0.083 -0.655,0.313 l -0.009,0 0,-0.263 -0.539,0 0,3.116 z" />
      </g>
      <g
         transform="matrix(0.759738,0,0,0.759738,74.4327,69.2805)"
         id="g890">
        <path
           id="path892"
           style="fill:#585e6a;fill-opacity:1;fill-rule:nonzero;stroke:none"
           d="m 0,0 c -0.203,-0.111 -0.436,-0.17 -0.734,-0.17 -0.707,0 -1.119,0.407 -1.119,1.108 0,0.621 0.33,1.131 0.994,1.131 0.793,0 1.018,-0.545 1.018,-1.292 l -1.479,0 c 0.025,-0.344 0.265,-0.54 0.611,-0.54 0.27,0 0.502,0.1 0.709,0.216 L 0,0 z M -0.373,1.16 C -0.39,1.43 -0.514,1.662 -0.826,1.662 -1.137,1.662 -1.295,1.446 -1.32,1.16 l 0.947,0 z m -0.436,1.757 0.569,0 -0.569,-0.607 -0.345,0 0.345,0.607 z" />
      </g>
      <path
         id="path894"
         style="fill:#585e6a;fill-opacity:1;fill-rule:nonzero;stroke:none"
         d="m 75.122272,71.556452 0.423174,0 0,-2.367343 -0.423174,0 0,2.367343 z" />
      <path
         id="path896"
         style="fill:#585e6a;fill-opacity:1;fill-rule:nonzero;stroke:none"
         d="m 76.226171,71.515426 0.423174,0 0,-0.403421 -0.423174,0 0,0.403421 z m 0,-0.700478 0.423174,0 0,-1.625839 -0.423174,0 0,1.625839 z" />
      <g
         transform="matrix(0.759738,0,0,0.759738,77.8894,69.4608)"
         id="g898">
        <path
           id="path900"
           style="fill:#585e6a;fill-opacity:1;fill-rule:nonzero;stroke:none"
           d="m 0,0 c 0.17,0 0.304,0.074 0.391,0.191 0.09,0.121 0.116,0.274 0.116,0.44 l -0.24,0 c -0.25,0 -0.62,-0.041 -0.62,-0.369 C -0.353,0.078 -0.2,0 0,0 m -0.652,1.67 c 0.216,0.101 0.506,0.162 0.743,0.162 0.653,0 0.923,-0.269 0.923,-0.901 l 0,-0.275 C 1.014,0.44 1.018,0.278 1.022,0.12 1.026,-0.042 1.035,-0.191 1.047,-0.357 l -0.49,0 c -0.021,0.112 -0.021,0.253 -0.025,0.32 l -0.009,0 c -0.128,-0.237 -0.407,-0.37 -0.661,-0.37 -0.377,0 -0.747,0.228 -0.747,0.636 0,0.319 0.154,0.506 0.366,0.61 0.211,0.104 0.486,0.125 0.718,0.125 l 0.308,0 c 0,0.345 -0.153,0.461 -0.483,0.461 -0.236,0 -0.473,-0.091 -0.66,-0.233 L -0.652,1.67 z" />
      </g>
      <g
         transform="matrix(0.759738,0,0,0.759738,79.3128,70.8148)"
         id="g902">
        <path
           id="path904"
           style="fill:#585e6a;fill-opacity:1;fill-rule:nonzero;stroke:none"
           d="m 0,0 0.495,0 0,-0.486 0.008,0 c 0.025,0.199 0.253,0.536 0.587,0.536 0.054,0 0.111,0 0.169,-0.016 l 0,-0.562 c -0.05,0.03 -0.149,0.046 -0.249,0.046 -0.452,0 -0.452,-0.565 -0.452,-0.872 l 0,-0.786 L 0,-2.14 0,0 z" />
      </g>
      <g
         transform="matrix(0.759738,0,0,0.759738,81.3972,69.4801)"
         id="g906">
        <path
           id="path908"
           style="fill:#585e6a;fill-opacity:1;fill-rule:nonzero;stroke:none"
           d="m 0,0 c 0.37,0 0.49,0.39 0.49,0.693 0,0.3 -0.141,0.682 -0.499,0.682 C -0.37,1.375 -0.47,0.979 -0.47,0.693 -0.47,0.398 -0.365,0 0,0 m 0.51,-0.142 -0.007,0 C 0.336,-0.35 0.108,-0.433 -0.154,-0.433 c -0.656,0 -0.898,0.54 -0.898,1.126 0,0.59 0.242,1.114 0.898,1.114 0.279,0 0.473,-0.095 0.64,-0.3 l 0.009,0 0,1.226 0.556,0 0,-3.116 -0.541,0 0,0.241 z" />
      </g>
      <g
         transform="matrix(0.759738,0,0,0.759738,30.1425,89.4707)"
         id="g910">
        <path
           id="path912"
           style="fill:#0d80c8;fill-opacity:1;fill-rule:nonzero;stroke:none"
           d="m 0,0 c -4.989,-0.601 -9.58,-0.577 -13.008,-0.058 l 1.187,-8.711 c 2.264,0.197 5.493,0.495 7.783,0.78 9.858,1.225 17.625,4.843 17.286,7.749 -0.07,0.591 -0.47,1.115 -1.139,1.569 3.024,-0.58 4.946,-1.594 5.107,-2.94 0.351,-2.905 -7.616,-6.254 -17.794,-7.478 -4.14,-0.499 -8.005,-0.568 -11.16,-0.279 l 1.179,-8.65 c 2.099,0.19 4.629,0.434 6.521,0.668 9.858,1.226 17.625,4.844 17.286,7.749 -0.07,0.59 -0.47,1.115 -1.139,1.569 3.024,-0.58 4.946,-1.593 5.107,-2.939 0.351,-2.906 -7.616,-6.255 -17.794,-7.479 -3.592,-0.433 -6.976,-0.54 -9.872,-0.373 l 1.025,-7.515 3.598,0 c 0.605,0.056 1.218,0.117 1.839,0.195 9.858,1.225 17.575,4.575 17.236,7.479 -0.07,0.591 -0.47,1.115 -1.139,1.569 3.024,-0.58 4.946,-1.594 5.107,-2.939 0.268,-2.228 -4.349,-4.712 -11.099,-6.304 l 11.113,0 0,32.251 C 15.257,3.458 8.381,1.009 0,0" />
      </g>
      <g
         transform="matrix(0.759738,0,0,0.759738,16.9238,81.9029)"
         id="g914">
        <path
           id="path916"
           style="fill:#0d80c8;fill-opacity:1;fill-rule:nonzero;stroke:none"
           d="m 0,0 0,-16.377 4.756,0 L 0,0 z" />
      </g>
      <g
         transform="matrix(0.759738,0,0,0.759738,26.3152,96.6659)"
         id="g918">
        <path
           id="path920"
           style="fill:#585e6a;fill-opacity:1;fill-rule:nonzero;stroke:none"
           d="m 0,0 c -9.198,-0.831 -15.506,-2.938 -15.44,-5.112 0.002,-0.07 0.011,-0.136 0.029,-0.203 L -15.45,-5.312 -4.379,-42.291 -9.316,-7.6 c 2.901,-0.303 6.612,-0.309 10.65,0.056 9.198,0.832 16.603,3.27 16.537,5.442 C 17.805,0.072 9.199,0.832 0,0" />
      </g>
    </g>
  </g>
</svg>
